<svg width="1541" height="762" viewBox="0 0 1541 762" fill="none" xmlns="http://www.w3.org/2000/svg">
<path d="M271 345.974C256.485 347.292 248.146 348.505 243.026 352.514C237.009 357.208 235.583 365.805 234 383C232.364 365.172 230.886 356.628 224.288 352.039C219.168 348.453 210.882 347.292 197 346.026C211.462 344.708 219.854 343.495 224.922 339.539C230.991 334.792 232.417 326.247 234 309C235.478 324.876 236.797 333.368 241.706 338.273C246.615 343.178 255.165 344.55 271 345.974Z" fill="#986CAC"/>
<path d="M1524 700.482C1514 701.391 1508.25 702.227 1504.72 704.989C1500.57 708.225 1499.59 714.15 1498.5 726C1497.37 713.713 1496.35 707.825 1491.81 704.662C1488.28 702.19 1482.57 701.391 1473 700.518C1482.97 699.609 1488.75 698.773 1492.24 696.047C1496.43 692.775 1497.41 686.887 1498.5 675C1499.52 685.942 1500.43 691.794 1503.81 695.175C1507.19 698.555 1513.09 699.5 1524 700.482Z" fill="#986CAC"/>
<path d="M1541 95.4818C1531 96.3906 1525.25 97.2267 1521.72 99.9893C1517.57 103.225 1516.59 109.15 1515.5 121C1514.37 108.713 1513.35 102.825 1508.81 99.6622C1505.28 97.1903 1499.57 96.3906 1490 95.5182C1499.97 94.6094 1505.75 93.7733 1509.24 91.047C1513.43 87.7755 1514.41 81.8867 1515.5 70C1516.52 80.9416 1517.43 86.794 1520.81 90.1746C1524.19 93.5552 1530.09 94.5004 1541 95.4818Z" fill="#986CAC"/>
<path d="M1468.5 250L1470.83 274.457L1490.07 258.787L1474.14 277.704L1499 280L1474.14 282.296L1490.07 301.213L1470.83 285.543L1468.5 310L1466.17 285.543L1446.93 301.213L1462.86 282.296L1438 280L1462.86 277.704L1446.93 258.787L1466.17 274.457L1468.5 250Z" fill="#75A3B1"/>
<path d="M446 33L448.908 63.5709L472.87 43.9835L453.021 67.6299L484 70.5L453.021 73.3701L472.87 97.0165L448.908 77.4291L446 108L443.092 77.4291L419.13 97.0165L438.979 73.3701L408 70.5L438.979 67.6299L419.13 43.9835L443.092 63.5709L446 33Z" fill="#75A3B1"/>
<path d="M48 0L49.2246 12.636L59.3137 4.53984L50.9564 14.3137L64 15.5L50.9564 16.6863L59.3137 26.4602L49.2246 18.364L48 31L46.7754 18.364L36.6863 26.4602L45.0436 16.6863L32 15.5L45.0436 14.3137L36.6863 4.53984L46.7754 12.636L48 0Z" fill="#75A3B1"/>
<path d="M344 573L345.76 591.343L360.263 579.59L348.25 593.778L367 595.5L348.25 597.222L360.263 611.41L345.76 599.657L344 618L342.24 599.657L327.737 611.41L339.75 597.222L321 595.5L339.75 593.778L327.737 579.59L342.24 591.343L344 573Z" fill="#75A3B1"/>
<path d="M1254.11 580.084C1253.39 580.412 1252.79 580.952 1252.38 581.633C1251.81 581.04 1251.07 580.637 1250.27 580.482C1249.46 580.326 1248.62 580.425 1247.88 580.764C1247.15 581.092 1246.55 581.632 1246.14 582.312C1245.57 581.719 1244.84 581.317 1244.03 581.162C1243.22 581.006 1242.39 581.105 1241.64 581.444C1241.01 581.738 1240.46 582.198 1240.07 582.776L1236.11 574.159C1235.87 573.623 1235.51 573.149 1235.05 572.77C1234.6 572.392 1234.07 572.119 1233.5 571.971C1232.93 571.823 1232.34 571.804 1231.76 571.916C1231.18 572.027 1230.63 572.266 1230.16 572.616C1229.41 573.183 1228.89 573.989 1228.67 574.898C1228.46 575.807 1228.56 576.763 1228.97 577.604L1238.56 598.507L1234.8 596.819C1233.63 596.303 1232.32 596.253 1231.12 596.679C1229.92 597.105 1228.93 597.974 1228.36 599.108L1227.96 599.902C1227.63 600.535 1227.54 601.269 1227.72 601.961C1227.9 602.654 1228.32 603.256 1228.92 603.653L1240.1 611.069C1242.37 612.759 1245.05 613.826 1247.86 614.164C1250.67 614.501 1253.52 614.097 1256.12 612.991C1259.95 611.236 1262.92 608.032 1264.38 604.086C1265.84 600.14 1265.68 595.774 1263.92 591.949L1259.37 582.034C1258.93 581.078 1258.13 580.335 1257.15 579.97C1256.16 579.604 1255.07 579.645 1254.11 580.084ZM1262.12 592.777C1263.66 596.124 1263.8 599.944 1262.52 603.396C1261.24 606.849 1258.64 609.652 1255.29 611.189C1253 612.15 1250.5 612.494 1248.03 612.186C1245.56 611.879 1243.22 610.931 1241.23 609.438L1230.04 601.96C1229.86 601.834 1229.72 601.647 1229.67 601.433C1229.61 601.218 1229.63 600.99 1229.73 600.791L1230.13 599.997C1230.48 599.318 1231.07 598.799 1231.79 598.544C1232.51 598.29 1233.29 598.321 1233.99 598.63L1240.16 601.396C1240.34 601.477 1240.55 601.501 1240.75 601.464C1240.94 601.426 1241.13 601.33 1241.27 601.187C1241.41 601.043 1241.5 600.861 1241.54 600.662C1241.57 600.464 1241.55 600.26 1241.46 600.077L1230.77 576.777C1230.55 576.349 1230.48 575.858 1230.58 575.386C1230.67 574.914 1230.93 574.49 1231.3 574.185C1231.57 573.988 1231.88 573.861 1232.21 573.815C1232.54 573.77 1232.87 573.807 1233.18 573.923C1233.43 574.015 1233.66 574.157 1233.85 574.34C1234.05 574.522 1234.2 574.742 1234.31 574.986L1242.59 593.014C1242.7 593.253 1242.9 593.438 1243.14 593.53C1243.39 593.621 1243.66 593.611 1243.9 593.501C1244.14 593.391 1244.33 593.191 1244.42 592.945C1244.51 592.698 1244.5 592.425 1244.39 592.186L1241.49 585.877C1241.27 585.398 1241.25 584.853 1241.44 584.359C1241.62 583.866 1241.99 583.466 1242.47 583.246C1242.95 583.027 1243.49 583.006 1243.99 583.189C1244.48 583.372 1244.88 583.743 1245.1 584.221L1247.99 590.531C1248.1 590.77 1248.3 590.956 1248.55 591.047C1248.8 591.139 1249.07 591.128 1249.31 591.019C1249.55 590.909 1249.73 590.709 1249.83 590.462C1249.92 590.215 1249.91 589.943 1249.8 589.703L1247.73 585.197C1247.51 584.719 1247.49 584.173 1247.67 583.68C1247.85 583.186 1248.23 582.786 1248.7 582.566C1249.18 582.347 1249.73 582.326 1250.22 582.509C1250.71 582.692 1251.11 583.064 1251.33 583.542L1253.4 588.048C1253.51 588.287 1253.71 588.473 1253.96 588.565C1254.21 588.656 1254.48 588.646 1254.72 588.536C1254.96 588.426 1255.14 588.226 1255.23 587.979C1255.33 587.733 1255.32 587.46 1255.21 587.221L1253.96 584.517C1253.74 584.039 1253.72 583.493 1253.91 583C1254.09 582.506 1254.46 582.106 1254.94 581.887C1255.42 581.667 1255.96 581.647 1256.46 581.829C1256.95 582.012 1257.35 582.384 1257.57 582.862L1262.12 592.777ZM1230.44 571.307C1230.68 571.197 1230.86 570.997 1230.96 570.75C1231.05 570.504 1231.04 570.231 1230.93 569.992L1229.69 567.288C1229.58 567.049 1229.38 566.863 1229.13 566.772C1228.88 566.68 1228.61 566.69 1228.37 566.8C1228.13 566.91 1227.95 567.11 1227.85 567.357C1227.76 567.603 1227.77 567.876 1227.88 568.115L1229.12 570.819C1229.23 571.058 1229.43 571.244 1229.68 571.336C1229.93 571.427 1230.2 571.417 1230.44 571.307Z" fill="#75A3B1"/>
<path d="M1237.5 572.43C1237.61 572.669 1237.81 572.855 1238.06 572.946C1238.31 573.038 1238.58 573.027 1238.82 572.918L1241.52 571.676C1241.76 571.566 1241.95 571.366 1242.04 571.12C1242.13 570.873 1242.12 570.6 1242.01 570.361C1241.9 570.122 1241.7 569.936 1241.45 569.845C1241.21 569.753 1240.93 569.764 1240.69 569.873L1237.99 571.115C1237.75 571.225 1237.57 571.425 1237.47 571.671C1237.38 571.918 1237.39 572.191 1237.5 572.43ZM1223.49 579.951L1226.2 578.71C1226.44 578.6 1226.62 578.4 1226.71 578.154C1226.81 577.907 1226.8 577.634 1226.69 577.395C1226.58 577.156 1226.38 576.97 1226.13 576.879C1225.88 576.787 1225.61 576.798 1225.37 576.907L1222.67 578.149C1222.43 578.258 1222.24 578.459 1222.15 578.705C1222.06 578.952 1222.07 579.225 1222.18 579.464C1222.29 579.703 1222.49 579.889 1222.74 579.98C1222.98 580.071 1223.26 580.061 1223.49 579.951ZM1225.59 574.31C1225.71 574.356 1225.84 574.377 1225.97 574.372C1226.1 574.368 1226.23 574.337 1226.35 574.282C1226.47 574.228 1226.57 574.15 1226.66 574.054C1226.75 573.958 1226.82 573.845 1226.87 573.722C1226.91 573.599 1226.93 573.469 1226.93 573.338C1226.92 573.207 1226.89 573.079 1226.84 572.96C1226.78 572.841 1226.71 572.734 1226.61 572.645C1226.51 572.556 1226.4 572.487 1226.28 572.442L1223.65 571.467C1223.53 571.421 1223.4 571.401 1223.26 571.405C1223.13 571.41 1223.01 571.441 1222.89 571.496C1222.65 571.606 1222.46 571.807 1222.37 572.054C1222.28 572.302 1222.29 572.576 1222.4 572.816C1222.51 573.056 1222.71 573.243 1222.96 573.334L1225.59 574.31ZM1235.36 570.14C1235.48 570.086 1235.59 570.009 1235.68 569.914C1235.76 569.819 1235.83 569.707 1235.88 569.584L1236.86 566.954C1236.9 566.832 1236.92 566.701 1236.92 566.57C1236.91 566.44 1236.88 566.311 1236.83 566.193C1236.77 566.074 1236.69 565.967 1236.6 565.878C1236.5 565.789 1236.39 565.72 1236.27 565.674C1236.14 565.629 1236.01 565.608 1235.88 565.613C1235.75 565.618 1235.62 565.648 1235.51 565.703C1235.39 565.757 1235.28 565.835 1235.19 565.931C1235.1 566.027 1235.03 566.139 1234.99 566.262L1234.01 568.892C1233.97 569.015 1233.95 569.145 1233.95 569.276C1233.95 569.407 1233.98 569.535 1234.04 569.654C1234.09 569.773 1234.17 569.88 1234.27 569.969C1234.36 570.058 1234.48 570.127 1234.6 570.172C1234.72 570.217 1234.85 570.237 1234.98 570.232C1235.11 570.226 1235.24 570.195 1235.36 570.14Z" fill="#75A3B1"/>
<path d="M13.6941 380.589C14.2317 380.871 14.6706 381.31 14.9522 381.848C15.4121 381.419 15.9937 381.143 16.6168 381.059C17.2399 380.975 17.8737 381.086 18.4308 381.378C18.9685 381.66 19.4074 382.099 19.689 382.636C20.1489 382.208 20.7305 381.932 21.3535 381.848C21.9766 381.764 22.6105 381.875 23.1676 382.167C23.6396 382.419 24.0346 382.794 24.3108 383.253L27.7061 376.837C27.9169 376.438 28.2139 376.091 28.5756 375.822C28.9372 375.552 29.3545 375.366 29.7969 375.278C30.2394 375.189 30.6959 375.201 31.1335 375.311C31.571 375.421 31.9784 375.628 32.3262 375.915C32.8695 376.38 33.2354 377.019 33.362 377.723C33.4887 378.427 33.3684 379.154 33.0214 379.779L24.7853 395.341L27.7357 394.214C28.6459 393.87 29.6535 393.888 30.5505 394.265C31.4475 394.643 32.1653 395.35 32.5559 396.241L32.8268 396.865C33.0526 397.364 33.0863 397.928 32.9212 398.45C32.7562 398.971 32.4041 399.413 31.9327 399.691L23.0637 404.876C21.2556 406.07 19.1665 406.77 17.004 406.907C14.8415 407.043 12.6809 406.612 10.7371 405.654C7.88939 404.147 5.75704 401.57 4.80912 398.491C3.86119 395.412 4.17533 392.082 5.68243 389.234L9.58917 381.853C9.96594 381.141 10.6101 380.608 11.3799 380.371C12.1497 380.134 12.9822 380.212 13.6941 380.589ZM7.02458 389.945C5.70586 392.436 5.43099 395.35 6.26043 398.044C7.08986 400.739 8.95566 402.993 11.4474 404.312C13.1585 405.145 15.058 405.517 16.9569 405.388C18.8559 405.26 20.6882 404.637 22.2717 403.581L31.1486 398.348C31.2941 398.26 31.403 398.123 31.4554 397.962C31.5078 397.8 31.5002 397.625 31.4339 397.468L31.163 396.844C30.9278 396.311 30.4972 395.888 29.9596 395.663C29.4221 395.437 28.8187 395.427 28.2735 395.633L23.4384 397.481C23.2943 397.535 23.1369 397.544 22.9873 397.507C22.8377 397.47 22.703 397.388 22.6009 397.273C22.4989 397.157 22.4345 397.014 22.4162 396.86C22.3979 396.707 22.4266 396.552 22.4985 396.416L31.6793 379.069C31.8669 378.751 31.9397 378.379 31.8857 378.014C31.8317 377.65 31.6541 377.314 31.3826 377.065C31.1876 376.903 30.9552 376.793 30.7066 376.744C30.458 376.694 30.2011 376.708 29.9592 376.784C29.7638 376.844 29.5825 376.942 29.4259 377.073C29.2694 377.204 29.141 377.366 29.0483 377.548L21.9451 390.969C21.8509 391.147 21.6899 391.28 21.4974 391.34C21.305 391.399 21.0969 391.379 20.9189 391.285C20.7409 391.191 20.6077 391.03 20.5484 390.837C20.4892 390.645 20.5088 390.437 20.603 390.259L23.0891 385.561C23.2775 385.205 23.3168 384.789 23.1983 384.404C23.0798 384.019 22.8132 383.697 22.4573 383.509C22.1013 383.32 21.6851 383.281 21.3002 383.4C20.9153 383.518 20.5932 383.785 20.4048 384.141L17.9187 388.838C17.8245 389.016 17.6635 389.149 17.471 389.209C17.2786 389.268 17.0705 389.248 16.8925 389.154C16.7145 389.06 16.5812 388.899 16.522 388.706C16.4627 388.514 16.4824 388.306 16.5766 388.128L18.3523 384.772C18.5407 384.416 18.58 384 18.4615 383.615C18.343 383.23 18.0765 382.908 17.7205 382.72C17.3646 382.532 16.9483 382.492 16.5634 382.611C16.1785 382.729 15.8564 382.996 15.6681 383.352L13.8923 386.707C13.7981 386.885 13.637 387.018 13.4446 387.078C13.2521 387.137 13.044 387.117 12.866 387.023C12.6881 386.929 12.5548 386.768 12.4955 386.575C12.4363 386.383 12.4559 386.175 12.5501 385.997L13.6156 383.984C13.804 383.628 13.8433 383.211 13.7248 382.827C13.6063 382.442 13.3397 382.12 12.9838 381.931C12.6278 381.743 12.2116 381.704 11.8267 381.822C11.4418 381.94 11.1197 382.207 10.9313 382.563L7.02458 389.945ZM32.1662 374.903C31.9882 374.808 31.855 374.647 31.7957 374.455C31.7365 374.262 31.7561 374.054 31.8503 373.876L32.9158 371.863C33.01 371.685 33.171 371.552 33.3635 371.493C33.5559 371.433 33.764 371.453 33.942 371.547C34.12 371.641 34.2533 371.802 34.3125 371.995C34.3718 372.187 34.3521 372.395 34.2579 372.573L33.1925 374.587C33.0983 374.765 32.9372 374.898 32.7448 374.957C32.5523 375.016 32.3442 374.997 32.1662 374.903Z" fill="#75A3B1"/>
<path d="M26.7195 375.456C26.6253 375.634 26.4642 375.767 26.2718 375.826C26.0793 375.886 25.8712 375.866 25.6932 375.772L23.68 374.706C23.502 374.612 23.3688 374.451 23.3095 374.259C23.2503 374.066 23.2699 373.858 23.3641 373.68C23.4583 373.502 23.6193 373.369 23.8118 373.31C24.0042 373.25 24.2123 373.27 24.3903 373.364L26.4035 374.43C26.5815 374.524 26.7148 374.685 26.774 374.877C26.8333 375.07 26.8136 375.278 26.7195 375.456ZM37.1014 381.81L35.0882 380.744C34.9103 380.65 34.777 380.489 34.7177 380.296C34.6585 380.104 34.6781 379.896 34.7723 379.718C34.8665 379.54 35.0275 379.407 35.22 379.347C35.4125 379.288 35.6206 379.308 35.7985 379.402L37.8118 380.467C37.9897 380.562 38.123 380.723 38.1823 380.915C38.2415 381.108 38.2219 381.316 38.1277 381.494C38.0335 381.672 37.8724 381.805 37.68 381.864C37.4875 381.923 37.2794 381.904 37.1014 381.81ZM35.7462 377.407C35.6505 377.437 35.5499 377.448 35.4501 377.438C35.3502 377.429 35.2532 377.4 35.1647 377.353C35.0761 377.306 34.9976 377.242 34.9339 377.165C34.8701 377.088 34.8224 376.999 34.7933 376.903C34.7634 376.807 34.7527 376.706 34.7619 376.607C34.7711 376.507 34.8 376.41 34.8469 376.321C34.8938 376.233 34.9578 376.154 35.0351 376.09C35.1125 376.027 35.2017 375.979 35.2976 375.95L37.35 375.318C37.4457 375.288 37.5463 375.278 37.6459 375.288C37.7456 375.297 37.8425 375.326 37.9309 375.373C38.1097 375.467 38.2435 375.629 38.303 375.822C38.3624 376.015 38.3427 376.224 38.2482 376.403C38.1536 376.582 37.9919 376.716 37.7986 376.775L35.7462 377.407ZM28.456 373.798C28.3674 373.752 28.2888 373.688 28.2247 373.612C28.1606 373.535 28.1123 373.446 28.0825 373.351L27.4507 371.299C27.4213 371.203 27.4109 371.102 27.4203 371.003C27.4297 370.903 27.4587 370.806 27.5055 370.718C27.5523 370.629 27.6161 370.551 27.6933 370.487C27.7704 370.423 27.8593 370.375 27.955 370.346C28.0507 370.316 28.1513 370.306 28.2509 370.315C28.3506 370.325 28.4475 370.354 28.5359 370.401C28.6244 370.447 28.7028 370.511 28.7667 370.588C28.8305 370.665 28.8785 370.754 28.908 370.85L29.5398 372.903C29.5697 372.998 29.5803 373.099 29.5711 373.199C29.5619 373.298 29.533 373.395 29.4861 373.484C29.4392 373.573 29.3753 373.651 29.2979 373.715C29.2206 373.779 29.1314 373.826 29.0355 373.855C28.9398 373.884 28.8394 373.894 28.74 373.884C28.6406 373.875 28.544 373.845 28.456 373.798Z" fill="#75A3B1"/>
<path d="M1159.43 130C1159.27 130 1159.1 129.971 1158.95 129.905C1158.6 129.771 1158.32 129.504 1158.17 129.161L1152.24 115.094L1139.3 128.713C1138.92 129.123 1138.31 129.247 1137.8 129.047C1137.28 128.837 1136.94 128.342 1136.94 127.779V70.3652C1136.94 69.822 1137.26 69.3359 1137.75 69.1167C1138.25 68.8975 1138.83 68.9928 1139.22 69.355L1181.49 107.917C1181.9 108.289 1182.05 108.88 1181.85 109.404C1181.66 109.928 1181.17 110.281 1180.61 110.29L1165.77 110.748L1171.75 122.852C1171.91 123.185 1171.93 123.557 1171.82 123.91C1171.7 124.253 1171.44 124.539 1171.11 124.691L1160.03 129.876C1159.84 129.952 1159.64 130 1159.43 130ZM1152.67 111.272C1152.76 111.272 1152.84 111.281 1152.92 111.291C1153.38 111.377 1153.76 111.682 1153.93 112.101L1160.14 126.788L1168.68 122.795L1162.37 110.042C1162.16 109.623 1162.18 109.137 1162.42 108.737C1162.66 108.336 1163.09 108.088 1163.55 108.079L1177.16 107.66L1139.67 73.4628V124.339L1151.69 111.701C1151.95 111.424 1152.31 111.272 1152.67 111.272Z" fill="#986CAC"/>
<path d="M818.498 762C818.4 762 818.297 761.983 818.206 761.944C817.999 761.865 817.828 761.708 817.742 761.505L814.178 753.203L806.415 761.241C806.186 761.483 805.825 761.556 805.516 761.438C805.206 761.314 805 761.021 805 760.689V726.806C805 726.485 805.195 726.198 805.487 726.069C805.785 725.939 806.134 725.996 806.369 726.209L831.732 748.967C831.979 749.187 832.064 749.535 831.95 749.845C831.835 750.154 831.537 750.362 831.205 750.368L822.296 750.638L825.888 757.781C825.986 757.978 825.997 758.198 825.929 758.406C825.854 758.608 825.699 758.777 825.505 758.867L818.853 761.927C818.738 761.972 818.618 762 818.498 762ZM814.442 750.947C814.493 750.947 814.539 750.953 814.591 750.959C814.866 751.009 815.095 751.189 815.198 751.437L818.922 760.104L824.044 757.748L820.257 750.222C820.131 749.974 820.148 749.687 820.291 749.451C820.434 749.215 820.692 749.069 820.967 749.063L829.131 748.816L806.639 728.634V758.659L813.852 751.2C814.006 751.037 814.224 750.947 814.442 750.947Z" fill="#986CAC"/>
</svg>
