<svg width="78" height="60" viewBox="0 0 78 60" fill="none" xmlns="http://www.w3.org/2000/svg">
<path d="M23.5334 38.3721H20.7427C18.4348 38.3721 16.5566 36.494 16.5566 34.1861V25.814C16.5566 23.5061 18.4348 21.6279 20.7427 21.6279H23.5334C25.8413 21.6279 27.7194 23.5061 27.7194 25.814V34.1861C27.7194 36.494 25.8413 38.3721 23.5334 38.3721ZM20.7427 24.4186C19.9739 24.4186 19.3473 25.0437 19.3473 25.814V34.1861C19.3473 34.9563 19.9739 35.5814 20.7427 35.5814H23.5334C24.3022 35.5814 24.9287 34.9563 24.9287 34.1861V25.814C24.9287 25.0437 24.3022 24.4186 23.5334 24.4186H20.7427Z" fill="#75A3B1"/>
<path d="M40.2795 38.3721H37.4888C35.1809 38.3721 33.3027 36.494 33.3027 34.1861V25.814C33.3027 23.5061 35.1809 21.6279 37.4888 21.6279H40.2795C42.5874 21.6279 44.4655 23.5061 44.4655 25.814V34.1861C44.4655 36.494 42.5874 38.3721 40.2795 38.3721ZM37.4888 24.4186C36.7199 24.4186 36.0934 25.0437 36.0934 25.814V34.1861C36.0934 34.9563 36.7199 35.5814 37.4888 35.5814H40.2795C41.0497 35.5814 41.6748 34.9563 41.6748 34.1861V25.814C41.6748 25.0437 41.0497 24.4186 40.2795 24.4186H37.4888Z" fill="#75A3B1"/>
<path d="M57.0236 38.372H54.2329C51.925 38.372 50.0469 36.4939 50.0469 34.186V25.8139C50.0469 23.5059 51.925 21.6278 54.2329 21.6278H57.0236C59.3315 21.6278 61.2097 23.5059 61.2097 25.8139V34.186C61.2097 36.4939 59.3315 38.372 57.0236 38.372ZM54.2329 24.4185C53.4627 24.4185 52.8376 25.0436 52.8376 25.8139V34.186C52.8376 34.9562 53.4627 35.5813 54.2329 35.5813H57.0236C57.7939 35.5813 58.419 34.9562 58.419 34.186V25.8139C58.419 25.0436 57.7939 24.4185 57.0236 24.4185H54.2329Z" fill="#75A3B1"/>
<path d="M31.906 60.0002H29.1153C27.1925 60.0002 25.627 58.436 25.627 56.5118V48.1397C25.627 46.2156 27.1925 44.6514 29.1153 44.6514H31.906C33.8288 44.6514 35.3944 46.2156 35.3944 48.1397V56.5118C35.3944 58.436 33.8288 60.0002 31.906 60.0002ZM29.1153 46.0467C27.9614 46.0467 27.0223 46.9858 27.0223 48.1397V56.5118C27.0223 57.6658 27.9614 58.6049 29.1153 58.6049H31.906C33.06 58.6049 33.999 57.6658 33.999 56.5118V48.1397C33.999 46.9858 33.06 46.0467 31.906 46.0467H29.1153Z" fill="#75A3B1"/>
<path d="M73.7693 60.0002H70.9786C69.0544 60.0002 67.4902 58.436 67.4902 56.5118V48.1397C67.4902 46.2156 69.0544 44.6514 70.9786 44.6514H73.7693C75.6935 44.6514 77.2577 46.2156 77.2577 48.1397V56.5118C77.2577 58.436 75.6935 60.0002 73.7693 60.0002ZM70.9786 46.0467C69.8247 46.0467 68.8856 46.9858 68.8856 48.1397V56.5118C68.8856 57.6658 69.8247 58.6049 70.9786 58.6049H73.7693C74.9233 58.6049 75.8623 57.6658 75.8623 56.5118V48.1397C75.8623 46.9858 74.9233 46.0467 73.7693 46.0467H70.9786Z" fill="#75A3B1"/>
<path d="M57.0222 60.0002H54.2315C52.3074 60.0002 50.7432 58.436 50.7432 56.5118V48.1397C50.7432 46.2156 52.3074 44.6514 54.2315 44.6514H57.0222C58.9464 44.6514 60.5106 46.2156 60.5106 48.1397V56.5118C60.5106 58.436 58.9464 60.0002 57.0222 60.0002ZM54.2315 46.0467C53.0776 46.0467 52.1385 46.9858 52.1385 48.1397V56.5118C52.1385 57.6658 53.0776 58.6049 54.2315 58.6049H57.0222C58.1762 58.6049 59.1153 57.6658 59.1153 56.5118V48.1397C59.1153 46.9858 58.1762 46.0467 57.0222 46.0467H54.2315Z" fill="#75A3B1"/>
<path d="M9.57951 37.674C9.19439 37.674 8.88184 37.3615 8.88184 36.9764V23.0229C8.88184 22.6378 9.19439 22.3252 9.57951 22.3252C9.96463 22.3252 10.2772 22.6378 10.2772 23.0229V36.9764C10.2772 37.3615 9.96463 37.674 9.57951 37.674Z" fill="#75A3B1"/>
<path d="M1.20744 37.674C0.822324 37.674 0.509766 37.3615 0.509766 36.9764V23.0229C0.509766 22.6378 0.822324 22.3252 1.20744 22.3252C1.59256 22.3252 1.90511 22.6378 1.90511 23.0229V36.9764C1.90511 37.3615 1.59256 37.674 1.20744 37.674Z" fill="#75A3B1"/>
<path d="M76.557 37.674C76.1719 37.674 75.8594 37.3615 75.8594 36.9764V23.0229C75.8594 22.6378 76.1719 22.3252 76.557 22.3252C76.9422 22.3252 77.2547 22.6378 77.2547 23.0229V36.9764C77.2547 37.3615 76.9422 37.674 76.557 37.674Z" fill="#75A3B1"/>
<path d="M68.1879 37.674C67.8028 37.674 67.4902 37.3615 67.4902 36.9764V23.0229C67.4902 22.6378 67.8028 22.3252 68.1879 22.3252C68.573 22.3252 68.8856 22.6378 68.8856 23.0229V36.9764C68.8856 37.3615 68.573 37.674 68.1879 37.674Z" fill="#75A3B1"/>
<path d="M6.78884 15.3488H3.99814C2.07535 15.3488 0.509766 13.7847 0.509766 11.8605V3.48837C0.509766 1.56419 2.07535 0 3.99814 0H6.78884C8.71163 0 10.2772 1.56419 10.2772 3.48837V11.8605C10.2772 13.7847 8.71163 15.3488 6.78884 15.3488ZM3.99814 1.39535C2.84418 1.39535 1.90511 2.33442 1.90511 3.48837V11.8605C1.90511 13.0144 2.84418 13.9535 3.99814 13.9535H6.78884C7.94279 13.9535 8.88186 13.0144 8.88186 11.8605V3.48837C8.88186 2.33442 7.94279 1.39535 6.78884 1.39535H3.99814Z" fill="#75A3B1"/>
<path d="M48.6521 15.3488H45.8614C43.9372 15.3488 42.373 13.7847 42.373 11.8605V3.48837C42.373 1.56419 43.9372 0 45.8614 0H48.6521C50.5763 0 52.1405 1.56419 52.1405 3.48837V11.8605C52.1405 13.7847 50.5763 15.3488 48.6521 15.3488ZM45.8614 1.39535C44.7075 1.39535 43.7684 2.33442 43.7684 3.48837V11.8605C43.7684 13.0144 44.7075 13.9535 45.8614 13.9535H48.6521C49.8061 13.9535 50.7451 13.0144 50.7451 11.8605V3.48837C50.7451 2.33442 49.8061 1.39535 48.6521 1.39535H45.8614Z" fill="#75A3B1"/>
<path d="M26.3246 15.3488C25.9395 15.3488 25.627 15.0363 25.627 14.6512V0.697675C25.627 0.312558 25.9395 0 26.3246 0C26.7097 0 27.0223 0.312558 27.0223 0.697675V14.6512C27.0223 15.0363 26.7097 15.3488 26.3246 15.3488Z" fill="#75A3B1"/>
<path d="M17.9545 15.3488C17.5694 15.3488 17.2568 15.0363 17.2568 14.6512V0.697675C17.2568 0.312558 17.5694 0 17.9545 0C18.3396 0 18.6522 0.312558 18.6522 0.697675V14.6512C18.6522 15.0363 18.3396 15.3488 17.9545 15.3488Z" fill="#75A3B1"/>
<path d="M76.557 15.3488C76.1719 15.3488 75.8594 15.0363 75.8594 14.6512V0.697675C75.8594 0.312558 76.1719 0 76.557 0C76.9422 0 77.2547 0.312558 77.2547 0.697675V14.6512C77.2547 15.0363 76.9422 15.3488 76.557 15.3488Z" fill="#75A3B1"/>
<path d="M68.1879 15.3488C67.8028 15.3488 67.4902 15.0363 67.4902 14.6512V0.697675C67.4902 0.312558 67.8028 0 68.1879 0C68.573 0 68.8856 0.312558 68.8856 0.697675V14.6512C68.8856 15.0363 68.573 15.3488 68.1879 15.3488Z" fill="#75A3B1"/>
<path d="M59.8158 15.3488C59.4307 15.3488 59.1182 15.0363 59.1182 14.6512V0.697675C59.1182 0.312558 59.4307 0 59.8158 0C60.201 0 60.5135 0.312558 60.5135 0.697675V14.6512C60.5135 15.0363 60.201 15.3488 59.8158 15.3488Z" fill="#75A3B1"/>
<path d="M34.6987 15.3488C34.3135 15.3488 34.001 15.0363 34.001 14.6512V0.697675C34.001 0.312558 34.3135 0 34.6987 0C35.0838 0 35.3963 0.312558 35.3963 0.697675V14.6512C35.3963 15.0363 35.0838 15.3488 34.6987 15.3488Z" fill="#75A3B1"/>
<path d="M6.78884 60.0002H3.99814C2.07535 60.0002 0.509766 58.436 0.509766 56.5118V48.1397C0.509766 46.2156 2.07535 44.6514 3.99814 44.6514H6.78884C8.71163 44.6514 10.2772 46.2156 10.2772 48.1397V56.5118C10.2772 58.436 8.71163 60.0002 6.78884 60.0002ZM3.99814 46.0467C2.84418 46.0467 1.90511 46.9858 1.90511 48.1397V56.5118C1.90511 57.6658 2.84418 58.6049 3.99814 58.6049H6.78884C7.94279 58.6049 8.88186 57.6658 8.88186 56.5118V48.1397C8.88186 46.9858 7.94279 46.0467 6.78884 46.0467H3.99814Z" fill="#75A3B1"/>
<path d="M17.9545 60.0002C17.5694 60.0002 17.2568 59.6877 17.2568 59.3025V45.349C17.2568 44.9639 17.5694 44.6514 17.9545 44.6514C18.3396 44.6514 18.6522 44.9639 18.6522 45.349V59.3025C18.6522 59.6877 18.3396 60.0002 17.9545 60.0002Z" fill="#75A3B1"/>
<path d="M43.0707 60.0002C42.6856 60.0002 42.373 59.6877 42.373 59.3025V45.349C42.373 44.9639 42.6856 44.6514 43.0707 44.6514C43.4558 44.6514 43.7684 44.9639 43.7684 45.349V59.3025C43.7684 59.6877 43.4558 60.0002 43.0707 60.0002Z" fill="#75A3B1"/>
</svg>
