<svg width="39" height="42" viewBox="0 0 39 42" fill="none" xmlns="http://www.w3.org/2000/svg">
<path d="M20.4609 41.1515C19.5555 41.1515 18.7868 40.8325 18.1548 40.1944L1.44808 23.3541C0.816028 22.6815 0.499999 21.8968 0.499999 21C0.499999 20.086 0.816028 19.31 1.44808 18.6719L18.1548 1.83151C18.7697 1.17618 19.5384 0.84851 20.4609 0.84851C21.3663 0.84851 22.1435 1.17618 22.7927 1.83151L24.7144 3.74578C25.3465 4.41836 25.6625 5.20303 25.6625 6.0998C25.6625 7.01382 25.3465 7.78988 24.7144 8.42796L17.1811 16.0333L35.2202 16.0333C36.1085 16.0333 36.8772 16.361 37.5263 17.0163C38.1754 17.6716 38.5 18.4477 38.5 19.3444L38.5 22.6556C38.5 23.5524 38.1754 24.3284 37.5263 24.9838C36.8772 25.6391 36.1085 25.9668 35.2202 25.9668L17.1811 25.9668L24.7144 33.5721C25.3465 34.2102 25.6625 34.9862 25.6625 35.9002C25.6625 36.797 25.3465 37.5817 24.7144 38.2543L22.7926 40.1944C22.1264 40.8325 21.3492 41.1515 20.4609 41.1515Z" fill="white"/>
</svg>
