<svg width="1728" height="1299" viewBox="0 0 1728 1299" fill="none" xmlns="http://www.w3.org/2000/svg">
<path d="M1438.67 651.826C1429.98 686.129 1405.67 714.789 1369.07 737.233C1332.46 759.679 1283.59 775.887 1225.85 785.283C1110.37 804.073 959.52 795.595 800.684 755.373C641.848 715.15 505.145 650.81 412.527 579.322C366.217 543.578 330.949 506.062 309.438 468.899C287.929 431.74 280.192 394.964 288.879 360.661C297.565 326.359 321.873 297.698 358.476 275.254C395.081 252.809 443.955 236.6 501.695 227.205C617.175 208.414 768.024 216.892 926.86 257.115C1085.7 297.337 1222.4 361.677 1315.02 433.165C1361.33 468.909 1396.59 506.426 1418.11 543.588C1439.61 580.748 1447.35 617.523 1438.67 651.826Z" stroke="url(#paint0_linear_368_392)"/>
<path d="M1699.27 717.82C1686.63 767.733 1651.27 809.418 1598.05 842.049C1544.83 874.681 1473.79 898.238 1389.88 911.892C1222.06 939.199 1002.85 926.877 772.054 868.431C541.254 809.984 342.604 716.491 208.006 612.601C140.706 560.656 89.44 506.126 58.1674 452.098C26.8963 398.073 15.6325 344.58 28.272 294.667C40.9116 244.754 76.2778 203.069 129.493 170.439C182.711 137.807 253.752 114.249 337.663 100.596C505.484 73.2884 724.689 85.6104 955.49 144.057C1186.29 202.503 1384.94 295.996 1519.54 399.886C1586.84 451.831 1638.1 506.361 1669.38 560.389C1700.65 614.414 1711.91 667.908 1699.27 717.82Z" stroke="url(#paint1_linear_368_392)"/>
<path d="M2016.38 798.123C1998.93 867.03 1950.11 924.564 1876.68 969.589C1803.25 1014.62 1705.23 1047.12 1589.48 1065.95C1357.97 1103.62 1055.58 1086.62 737.217 1006C418.849 925.379 144.821 796.413 -40.858 653.096C-133.698 581.437 -204.431 506.205 -247.582 431.655C-290.732 357.107 -306.287 283.272 -288.837 214.365C-271.388 145.457 -222.566 87.9239 -149.136 42.8983C-75.7036 -2.12899 22.3103 -34.6282 138.067 -53.4636C369.577 -91.1342 671.959 -74.1346 990.327 6.4868C1308.7 87.1082 1582.72 216.075 1768.4 359.392C1861.24 431.051 1931.97 506.283 1975.13 580.833C2018.28 655.38 2033.83 729.216 2016.38 798.123Z" stroke="url(#paint2_linear_368_392)"/>
<defs>
<linearGradient id="paint0_linear_368_392" x1="328.696" y1="340.796" x2="1324.75" y2="754.025" gradientUnits="userSpaceOnUse">
<stop stop-color="#986CAC"/>
<stop offset="0.491388" stop-color="#986CAC" stop-opacity="0.36"/>
<stop offset="1" stop-color="#986CAC"/>
</linearGradient>
<linearGradient id="paint1_linear_368_392" x1="86.343" y1="265.859" x2="1533.55" y2="866.253" gradientUnits="userSpaceOnUse">
<stop stop-color="#986CAC"/>
<stop offset="0.491388" stop-color="#986CAC" stop-opacity="0.36"/>
<stop offset="1" stop-color="#986CAC"/>
</linearGradient>
<linearGradient id="paint2_linear_368_392" x1="-208.555" y1="174.676" x2="1787.61" y2="1002.81" gradientUnits="userSpaceOnUse">
<stop stop-color="#986CAC"/>
<stop offset="0.491388" stop-color="#986CAC" stop-opacity="0.36"/>
<stop offset="1" stop-color="#986CAC"/>
</linearGradient>
</defs>
</svg>
