<svg width="75" height="75" viewBox="0 0 75 75" fill="none" xmlns="http://www.w3.org/2000/svg">
<path d="M11.0164 26.9231H7.6038C7.28722 26.9231 6.98362 27.0582 6.75977 27.2986C6.53591 27.539 6.41016 27.8651 6.41016 28.2051C6.41016 28.5452 6.53591 28.8713 6.75977 29.1117C6.98362 29.3521 7.28722 29.4872 7.6038 29.4872H11.0152C11.3318 29.4872 11.6354 29.3521 11.8592 29.1117C12.0831 28.8713 12.2089 28.5452 12.2089 28.2051C12.2089 27.8651 12.0831 27.539 11.8592 27.2986C11.6354 27.0582 11.333 26.9231 11.0164 26.9231ZM19.2012 28.2051C19.2012 28.5452 19.327 28.8713 19.5508 29.1117C19.7747 29.3521 20.0783 29.4872 20.3948 29.4872H23.8063C24.1228 29.4872 24.4264 29.3521 24.6503 29.1117C24.8741 28.8713 24.9999 28.5452 24.9999 28.2051C24.9999 27.8651 24.8741 27.539 24.6503 27.2986C24.4264 27.0582 24.1228 26.9231 23.8063 26.9231H20.3948C20.0783 26.9231 19.7747 27.0582 19.5508 27.2986C19.327 27.539 19.2012 27.8651 19.2012 28.2051Z" fill="#75A3B1"/>
<path d="M72.6562 0H23.4375C22.1449 0 21.0938 1.05117 21.0938 2.34375V21.0938H2.34375C1.05117 21.0938 0 22.1449 0 23.4375V72.6562C0 73.9488 1.05117 75 2.34375 75H51.5625C52.8551 75 53.9062 73.9488 53.9062 72.6562V53.9062H72.6562C73.9488 53.9062 75 52.8551 75 51.5625V2.34375C75 1.05117 73.9488 0 72.6562 0ZM51.5625 72.6562H2.34375V35.1562H51.5625V72.6562ZM51.5625 32.8125H2.34375V23.4375H22.2703L51.5625 23.434V32.8125ZM72.6562 51.5625H53.9062V23.4375C53.9062 22.1449 52.8551 21.0938 51.5625 21.0938H23.4375V14.0625H72.6562V51.5625ZM72.6562 11.7188H23.4375V2.34375H72.6562V11.7188Z" fill="#75A3B1"/>
<path d="M28.8456 8.11227H32.2401C32.5551 8.11227 32.8572 7.98886 33.08 7.76919C33.3027 7.54951 33.4278 7.25157 33.4278 6.9409C33.4278 6.63024 33.3027 6.33229 33.08 6.11262C32.8572 5.89294 32.5551 5.76953 32.2401 5.76953H28.8444C28.5294 5.76953 28.2273 5.89294 28.0046 6.11262C27.7818 6.33229 27.6567 6.63024 27.6567 6.9409C27.6567 7.25157 27.7818 7.54951 28.0046 7.76919C28.2273 7.98886 28.5306 8.11227 28.8456 8.11227ZM41.572 8.11227H44.9665C45.2816 8.11227 45.5837 7.98886 45.8064 7.76919C46.0291 7.54951 46.1543 7.25157 46.1543 6.9409C46.1543 6.63024 46.0291 6.33229 45.8064 6.11262C45.5837 5.89294 45.2816 5.76953 44.9665 5.76953H41.572C41.257 5.76953 40.9549 5.89294 40.7322 6.11262C40.5095 6.33229 40.3843 6.63024 40.3843 6.9409C40.3843 7.25157 40.5095 7.54951 40.7322 7.76919C40.9549 7.98886 41.257 8.11227 41.572 8.11227ZM16.5432 61.6521C16.6532 61.7613 16.7841 61.8479 16.9282 61.907C17.0723 61.9661 17.2268 61.9965 17.3829 61.9965C17.539 61.9965 17.6935 61.9661 17.8376 61.907C17.9817 61.8479 18.1126 61.7613 18.2226 61.6521C18.4453 61.4324 18.5704 61.1346 18.5704 60.824C18.5704 60.5133 18.4453 60.2155 18.2226 59.9958L13.1237 54.9671L18.2226 49.9384C18.3361 49.8303 18.4266 49.7011 18.4888 49.5582C18.551 49.4153 18.5838 49.2616 18.5852 49.106C18.5866 48.9505 18.5565 48.7962 18.4968 48.6523C18.4371 48.5083 18.3489 48.3775 18.2374 48.2676C18.1258 48.1576 17.9932 48.0706 17.8473 48.0117C17.7013 47.9528 17.5449 47.9232 17.3872 47.9245C17.2295 47.9259 17.0736 47.9582 16.9287 48.0196C16.7838 48.081 16.6528 48.1702 16.5432 48.2821L10.6046 54.1389C10.3819 54.3586 10.2568 54.6565 10.2568 54.9671C10.2568 55.2777 10.3819 55.5756 10.6046 55.7953L16.5432 61.6521ZM35.5467 61.6521C35.6568 61.7613 35.7876 61.8479 35.9317 61.907C36.0758 61.9661 36.2304 61.9965 36.3865 61.9965C36.5425 61.9965 36.6971 61.9661 36.8412 61.907C36.9853 61.8479 37.1161 61.7613 37.2262 61.6521L43.1648 55.7953C43.3874 55.5756 43.5125 55.2777 43.5125 54.9671C43.5125 54.6565 43.3874 54.3586 43.1648 54.1389L37.2262 48.2821C37.1166 48.1702 36.9855 48.081 36.8406 48.0196C36.6957 47.9582 36.5399 47.9259 36.3822 47.9245C36.2245 47.9232 36.0681 47.9528 35.9221 48.0117C35.7761 48.0706 35.6435 48.1576 35.532 48.2676C35.4205 48.3775 35.3323 48.5083 35.2726 48.6523C35.2129 48.7962 35.1828 48.9505 35.1842 49.106C35.1856 49.2616 35.2183 49.4153 35.2806 49.5582C35.3428 49.7011 35.4333 49.8303 35.5467 49.9384L40.6456 54.9671L35.5467 59.9958C35.3241 60.2155 35.199 60.5133 35.199 60.824C35.199 61.1346 35.3241 61.4324 35.5467 61.6521ZM21.0542 67.8463C21.1964 67.9093 21.3498 67.944 21.5057 67.9485C21.6615 67.953 21.8168 67.9271 21.9625 67.8724C22.1082 67.8177 22.2415 67.7352 22.3549 67.6296C22.4683 67.524 22.5594 67.3975 22.6231 67.2571L33.3126 43.7325C33.3764 43.5922 33.4116 43.4409 33.4161 43.2872C33.4206 43.1335 33.3943 42.9805 33.3389 42.8368C33.2834 42.6931 33.1998 42.5616 33.0928 42.4498C32.9857 42.3379 32.8575 42.248 32.7152 42.1851C32.573 42.1222 32.4195 42.0875 32.2637 42.0831C32.1079 42.0786 31.9527 42.1045 31.807 42.1592C31.6613 42.2139 31.528 42.2964 31.4146 42.402C31.3012 42.5075 31.21 42.634 31.1462 42.7743L20.4567 66.2989C20.3929 66.4392 20.3576 66.5905 20.3531 66.7442C20.3486 66.8979 20.3748 67.051 20.4303 67.1947C20.4857 67.3385 20.5694 67.47 20.6765 67.5818C20.7835 67.6936 20.9119 67.7835 21.0542 67.8463Z" fill="#75A3B1"/>
</svg>
