<svg width="80" height="47" viewBox="0 0 80 47" fill="none" xmlns="http://www.w3.org/2000/svg">
<path d="M11.3261 31.0163C11.1169 31.0164 10.9107 30.9669 10.7244 30.8718L0.712486 25.7148C0.403802 25.5559 0.170558 25.2813 0.0637339 24.951C-0.0430906 24.6207 -0.0148077 24.2615 0.142401 23.952L11.904 0.720352C11.9821 0.566093 12.0899 0.428767 12.2211 0.316247C12.3524 0.203727 12.5046 0.118228 12.669 0.0646538C12.8334 0.0110797 13.0067 -0.00951541 13.1791 0.00404901C13.3514 0.0176134 13.5194 0.0650699 13.6734 0.143699L23.198 5.00388C23.5038 5.15948 23.7366 5.42856 23.8466 5.75357C23.9565 6.07857 23.935 6.43371 23.7865 6.74303L12.5109 30.2663C12.4347 30.4245 12.3277 30.5659 12.1962 30.6823C12.0647 30.7986 11.9114 30.8876 11.7451 30.9441C11.6101 30.9901 11.4687 31.0145 11.3261 31.0163ZM3.07558 23.9756L10.7258 27.9163L20.8638 6.76799L13.6524 3.09002L3.07558 23.9756Z" fill="#75A3B1"/>
<path d="M24.9342 12.7369C24.7082 12.7368 24.4861 12.6784 24.2893 12.5674L20.4721 10.4171C20.3217 10.3325 20.1895 10.2191 20.083 10.0834C19.9765 9.94771 19.8978 9.79236 19.8513 9.62623C19.8048 9.4601 19.7915 9.28644 19.8122 9.11517C19.8328 8.9439 19.887 8.77838 19.9716 8.62804C20.0562 8.47771 20.1696 8.34551 20.3053 8.239C20.441 8.13249 20.5963 8.05375 20.7625 8.00728C20.9286 7.96081 21.1023 7.94751 21.2735 7.96815C21.4448 7.98879 21.6103 8.04297 21.7607 8.12758L24.9132 9.9022C26.144 9.1561 28.8079 7.54961 30.5129 6.58677C33.2964 5.0105 35.2562 5.22723 37.5063 7.35914C37.7527 7.60019 37.8944 7.9284 37.901 8.27299C37.9075 8.61758 37.7784 8.95095 37.5414 9.2012C37.3044 9.45146 36.9786 9.59855 36.6341 9.61075C36.2897 9.62295 35.9543 9.49929 35.7002 9.26643C34.3025 7.94236 33.5748 7.87406 31.8055 8.87237C29.6144 10.1111 25.6619 12.5201 25.6212 12.5503C25.4138 12.6746 25.176 12.7391 24.9342 12.7369Z" fill="#75A3B1"/>
<path d="M59.4905 35.5911C58.5333 35.6157 57.589 35.3664 56.7688 34.8726C55.5603 34.0661 50.243 28.8512 49.1895 27.8148C48.9573 27.5676 48.8296 27.2401 48.8334 26.901C48.8371 26.5618 48.9719 26.2372 49.2095 25.9952C49.4471 25.7531 49.7692 25.6124 50.1082 25.6024C50.4473 25.5925 50.7771 25.714 51.0285 25.9417C53.3929 28.2759 57.4492 32.1706 58.2229 32.6868C58.7215 32.9172 59.2731 33.0091 59.8195 32.9527C60.3659 32.8963 60.887 32.6937 61.3281 32.3663C61.5347 32.1872 61.6994 31.9649 61.8106 31.7152C61.9219 31.4654 61.9769 31.1943 61.9719 30.9209C61.9669 30.6476 61.9019 30.3787 61.7816 30.1332C61.6613 29.8877 61.4886 29.6716 61.2756 29.5001C59.9331 27.9895 54.3557 22.6236 53.1315 21.4467C48.8597 19.8808 44.7172 17.9826 40.742 15.7695L39.3601 16.6732C39.0499 18.1134 38.2222 19.3898 37.0338 20.2605C36.6167 20.5891 36.1325 20.822 35.6154 20.9428C35.0983 21.0635 34.561 21.0692 34.0415 20.9593C33.4111 20.8808 32.8041 20.6715 32.2592 20.3449C31.7143 20.0183 31.2436 19.5815 30.8772 19.0626C30.1786 17.5701 30.1002 15.8616 30.6591 14.3114C31.7796 9.82692 33.5975 8.6723 36.113 7.07501L36.666 6.72166C39.4376 4.94178 41.8165 3.99339 44.4278 5.16903C46.0514 5.90069 51.814 8.13243 53.4507 8.76556L58.9361 6.9673C59.2647 6.86737 59.6194 6.90012 59.9241 7.05852C60.2289 7.21693 60.4595 7.4884 60.5665 7.81476C60.6735 8.14112 60.6484 8.49642 60.4966 8.80452C60.3449 9.11262 60.0784 9.34902 59.7545 9.46306L53.8237 11.4071C53.5366 11.5008 53.226 11.4934 52.9437 11.3861C52.6324 11.2653 45.3053 8.44637 43.3547 7.56628C42.1843 7.04086 40.9482 7.09471 38.0899 8.93107L37.5251 9.2923C35.2303 10.749 34.0783 11.482 33.2113 14.9485C32.7674 16.7244 32.9723 17.4443 33.1338 17.707C33.3414 18.0538 33.8222 18.1943 34.588 18.3861C34.7523 18.4138 34.9208 18.4046 35.0812 18.3591C35.2416 18.3137 35.3899 18.2332 35.5153 18.1234C35.8858 17.8442 36.1953 17.4922 36.4246 17.089C36.6539 16.6857 36.7982 16.2398 36.8486 15.7787C36.8658 15.5806 36.9276 15.3891 37.0296 15.2184C37.1315 15.0478 37.2708 14.9025 37.4371 14.7935L39.9657 13.1397C40.165 13.0101 40.3957 12.937 40.6333 12.9282C40.8709 12.9194 41.1064 12.9753 41.3147 13.0898C41.404 13.1384 50.2601 17.9815 54.139 19.0008C54.3546 19.0584 54.5524 19.169 54.7143 19.3227C54.9981 19.5946 61.6762 25.989 63.2446 27.7583C63.6792 28.179 64.0238 28.6836 64.2575 29.2414C64.4913 29.7993 64.6093 30.3988 64.6043 31.0036C64.5994 31.6084 64.4717 32.2059 64.229 32.7599C63.9862 33.3139 63.6334 33.8128 63.1921 34.2263C62.1814 35.1432 60.8545 35.6325 59.4905 35.5911Z" fill="#75A3B1"/>
<path d="M62.2618 29.9419C61.9608 29.9417 61.6691 29.8382 61.4353 29.6485C61.2015 29.4589 61.04 29.1948 60.9777 28.9003C60.9154 28.6058 60.9561 28.2989 61.093 28.0308C61.2299 27.7628 61.4547 27.5499 61.7299 27.4278L66.3378 25.3865C66.4962 25.3117 66.668 25.2694 66.843 25.2619C67.018 25.2545 67.1927 25.2821 67.3568 25.3432C67.521 25.4043 67.6713 25.4976 67.7989 25.6177C67.9264 25.7377 68.0287 25.882 68.0997 26.0422C68.1706 26.2023 68.2088 26.375 68.2121 26.5501C68.2153 26.7253 68.1834 26.8993 68.1184 27.0619C68.0534 27.2246 67.9565 27.3726 67.8334 27.4972C67.7104 27.6218 67.5636 27.7206 67.4018 27.7877L62.7925 29.8342C62.625 29.9066 62.4443 29.9433 62.2618 29.9419Z" fill="#75A3B1"/>
<path d="M68.2869 31.0164C68.0251 31.0162 67.7693 30.9379 67.5523 30.7914C67.3354 30.6449 67.1671 30.4369 67.0692 30.1941L57.1544 5.59633C57.0882 5.43229 57.0557 5.25655 57.0591 5.07966C57.0624 4.90277 57.1014 4.72838 57.1738 4.56694C57.2461 4.4055 57.3504 4.26035 57.4802 4.14019C57.6101 4.02003 57.7629 3.92734 57.9294 3.86768L68.5246 0.0767435C68.8452 -0.0379068 69.1977 -0.0236491 69.5079 0.116512C69.8181 0.256673 70.0618 0.51179 70.1876 0.8281L79.908 25.2262C79.9715 25.3875 80.0026 25.5598 79.9993 25.7331C79.9959 25.9065 79.9583 26.0775 79.8886 26.2362C79.8189 26.395 79.7184 26.5383 79.593 26.6581C79.4676 26.7778 79.3197 26.8715 79.1579 26.9338L68.7571 30.9244C68.6073 30.9836 68.4479 31.0148 68.2869 31.0164ZM60.0981 5.88006L69.0185 28.0096L76.9708 24.9622L68.2159 2.97709L60.0981 5.88006ZM53.5724 39.5755C52.4895 39.608 51.4321 39.2441 50.5985 38.5523C48.8396 36.9891 44.3183 32.4705 44.1265 32.2787C43.8873 32.0309 43.7549 31.6991 43.7579 31.3547C43.7609 31.0103 43.899 30.6809 44.1425 30.4373C44.3861 30.1938 44.7156 30.0556 45.06 30.0526C45.4044 30.0496 45.7362 30.182 45.9839 30.4213C46.0299 30.4673 50.6431 35.0779 52.3429 36.5951C52.6952 36.8097 53.0941 36.9361 53.5058 36.9636C53.9174 36.991 54.3296 36.9187 54.7073 36.7527C55.3241 36.5423 55.8713 36.1665 56.2891 35.6664C56.707 35.1663 56.9795 34.5611 57.0769 33.9167C57.1063 33.7467 57.1688 33.5841 57.2609 33.4383C57.3531 33.2925 57.4731 33.1662 57.614 33.0667C57.7549 32.9673 57.9141 32.8965 58.0824 32.8586C58.2507 32.8206 58.4248 32.8162 58.5948 32.8455C58.7648 32.8748 58.9273 32.9373 59.0732 33.0295C59.219 33.1216 59.3453 33.2416 59.4447 33.3825C59.5442 33.5235 59.6149 33.6826 59.6529 33.8509C59.6909 34.0192 59.6953 34.1933 59.666 34.3633C59.4874 35.4668 59.0133 36.5014 58.294 37.3571C57.5748 38.2128 56.6372 38.8578 55.5808 39.2235C54.9358 39.4524 54.2568 39.5714 53.5724 39.5755Z" fill="#75A3B1"/>
<path d="M47.46 42.7599C46.3795 42.806 45.3235 42.429 44.5164 41.709L39.8506 37.0433L41.7093 35.1846L46.375 39.8503C46.6638 40.0125 46.9833 40.1122 47.313 40.1429C47.6427 40.1737 47.9752 40.1349 48.2889 40.029C48.8915 39.881 49.4432 39.5739 49.8864 39.1397C50.3296 38.7055 50.648 38.1602 50.8083 37.5608C50.8569 37.3936 50.9382 37.2377 51.0476 37.1022C51.1569 36.9667 51.2922 36.8543 51.4454 36.7716C51.5985 36.6888 51.7667 36.6373 51.9399 36.6201C52.1132 36.6029 52.2882 36.6203 52.4546 36.6714C52.6211 36.7224 52.7758 36.806 52.9097 36.9173C53.0435 37.0287 53.1539 37.1655 53.2344 37.3199C53.3149 37.4743 53.364 37.6432 53.3786 37.8167C53.3933 37.9902 53.3733 38.1648 53.3198 38.3305C52.9544 39.6035 52.1857 40.7235 51.1293 41.5222C50.0729 42.321 48.7844 42.7553 47.46 42.7599Z" fill="#75A3B1"/>
<path d="M42.4528 46.2679C41.379 46.2908 40.3288 45.9506 39.4723 45.3024C38.289 44.3551 37.1002 43.4145 35.906 42.4809C35.7672 42.3758 35.6507 42.2441 35.5633 42.0935C35.4759 41.9429 35.4193 41.7764 35.3968 41.6038C35.3743 41.4311 35.3863 41.2557 35.4322 41.0877C35.4781 40.9198 35.5569 40.7626 35.6641 40.6254C35.7713 40.4881 35.9047 40.3736 36.0565 40.2884C36.2084 40.2032 36.3757 40.149 36.5486 40.1291C36.7216 40.1091 36.8968 40.1237 37.0641 40.1721C37.2314 40.2204 37.3874 40.3016 37.523 40.4107C37.523 40.4107 39.1636 41.6915 41.1143 43.252C41.5299 43.4993 42.0025 43.6346 42.4861 43.6445C42.9696 43.6544 43.4474 43.5386 43.8728 43.3085C44.2531 43.1449 44.5749 42.87 44.7958 42.5199C45.0167 42.1698 45.1263 41.761 45.1101 41.3473C45.0995 40.9991 45.2277 40.661 45.4664 40.4072C45.7051 40.1535 46.0348 40.005 46.383 39.9943C46.7302 39.9882 47.066 40.118 47.3188 40.3561C47.5715 40.5941 47.7213 40.9216 47.7359 41.2685C47.7669 42.1835 47.5285 43.0874 47.0502 43.8681C46.572 44.6487 45.875 45.2717 45.0458 45.6597C44.2396 46.0588 43.3523 46.2669 42.4528 46.2679Z" fill="#75A3B1"/>
<path d="M32.6089 45.6597C32.182 45.6582 31.7594 45.5734 31.365 45.4102C30.2939 44.8846 29.4109 44.0415 28.8364 42.9958C27.9041 43.1767 26.9381 43.0316 26.1002 42.5847C25.3974 42.124 24.7932 41.5281 24.3228 40.8318C23.8523 40.1354 23.5251 39.3524 23.3601 38.5284C23.2909 38.1929 23.3555 37.8436 23.5401 37.5551C24.608 35.8895 26.2184 33.3004 26.4588 32.7606C26.6751 32.3299 26.9819 31.951 27.3583 31.6499C27.7346 31.3488 28.1716 31.1326 28.6393 31.0162C29.2755 30.8494 29.9409 30.8271 30.5868 30.9507C31.2327 31.0744 31.8428 31.3409 32.3725 31.7307C32.9594 32.1193 33.4307 32.6589 33.7368 33.2927C34.0429 33.9266 34.1723 34.6313 34.1116 35.3325C34.7364 35.3594 35.3482 35.5201 35.9056 35.8035C36.463 36.087 36.9532 36.4867 37.343 36.9758C37.7216 37.5674 37.9632 38.2362 38.0503 38.9332C38.1373 39.6302 38.0676 40.3379 37.8461 41.0045C37.1571 42.9274 35.7426 44.5042 33.9054 45.397C33.4952 45.5705 33.0543 45.6598 32.6089 45.6597ZM31.0484 41.5601C31.4608 42.2576 32.1978 43.2586 32.8874 42.9709C34.0323 42.3746 34.9138 41.3727 35.3595 40.1612C35.4472 39.8931 35.4807 39.6102 35.4582 39.329C35.4356 39.0478 35.3574 38.7739 35.2281 38.5232C35.0283 38.3275 34.7911 38.174 34.5307 38.072C34.2702 37.97 33.9919 37.9215 33.7123 37.9294L31.0484 41.5601ZM26.0687 38.4732C26.2777 39.2031 26.7307 39.8392 27.352 40.2755C27.546 40.375 27.7584 40.4337 27.9759 40.4479C28.1935 40.4622 28.4117 40.4316 28.617 40.3582L31.4214 35.5506C31.5329 35.2535 31.5401 34.9273 31.4417 34.6256C31.3434 34.3239 31.1454 34.0646 30.8803 33.8902C30.6785 33.7312 30.4458 33.6162 30.1969 33.5526C29.948 33.4891 29.6886 33.4783 29.4353 33.5211C29.2117 33.558 29.0076 33.6707 28.8574 33.8403C28.5106 34.6088 26.8424 37.2569 26.0687 38.4732Z" fill="#75A3B1"/>
<path d="M22.5685 40.5257C22.2573 40.5266 21.9475 40.4824 21.649 40.3944C19.3989 39.7179 18.5175 36.8044 18.4242 36.4747C18.3771 36.3075 18.3636 36.1325 18.3846 35.96C18.4056 35.7875 18.4606 35.6209 18.5464 35.4698C19.6628 33.5304 20.8977 31.6616 22.244 29.8741C22.9199 28.9948 23.8992 28.399 24.9907 28.203C26.0822 28.007 27.2076 28.2249 28.1472 28.814C29.3872 29.6744 30.2962 31.5462 28.7751 33.9921C28.6841 34.1387 28.5651 34.266 28.4249 34.3666C28.2847 34.4673 28.1261 34.5393 27.9581 34.5786C27.7901 34.618 27.6159 34.6238 27.4457 34.5959C27.2754 34.5679 27.1123 34.5067 26.9656 34.4157C26.819 34.3247 26.6917 34.2057 26.5911 34.0655C26.4905 33.9254 26.4184 33.7667 26.3791 33.5987C26.3397 33.4307 26.3339 33.2566 26.3618 33.0863C26.3898 32.916 26.451 32.7529 26.542 32.6063C26.8796 32.0611 27.1725 31.3374 26.6484 30.9735C26.2654 30.7643 25.8198 30.6998 25.3932 30.792C24.9665 30.8841 24.5873 31.1266 24.3247 31.4753C23.1708 33.0086 22.103 34.6048 21.1262 36.2567C21.4139 36.9436 21.9038 37.7305 22.4043 37.8789C22.847 38.0103 23.4551 37.5558 23.7848 37.2747C24.0486 37.0468 24.392 36.9331 24.7396 36.9585C25.0872 36.9838 25.4104 37.1462 25.6383 37.41C25.8661 37.6737 25.9799 38.0171 25.9545 38.3647C25.9291 38.7123 25.7667 39.0356 25.503 39.2634C24.7132 40.0305 23.6686 40.4799 22.5685 40.5257Z" fill="#75A3B1"/>
<path d="M19.6858 37.4262C19.5415 37.426 19.3981 37.402 19.2616 37.3552C19.0396 37.2804 13.8037 35.4506 13.8037 31.3496C13.8036 31.2119 13.8248 31.0749 13.8668 30.9437C14.342 29.6357 14.993 28.3984 15.8016 27.2658C16.4034 26.5467 17.2346 26.0569 18.1553 25.8789C19.0759 25.7009 20.0298 25.8455 20.8562 26.2885C21.6342 26.6332 22.2547 27.2572 22.5951 28.037C22.9356 28.8169 22.9713 29.6961 22.6952 30.5011C21.8361 33.2674 20.9547 36.4292 20.9455 36.462C20.8684 36.7382 20.703 36.9815 20.4746 37.1549C20.2462 37.3283 19.9673 37.4222 19.6806 37.4222L19.6858 37.4262ZM16.4413 31.5532C16.5727 32.7827 17.8311 33.718 18.8399 34.2789C19.1827 33.0809 19.6911 31.3378 20.1902 29.7261C20.2361 29.6237 20.2595 29.5127 20.259 29.4005C20.2585 29.2884 20.234 29.1776 20.1873 29.0756C20.1405 28.9737 20.0725 28.8829 19.9879 28.8093C19.9032 28.7357 19.8038 28.681 19.6963 28.6489C19.425 28.4958 19.1143 28.4266 18.8036 28.45C18.4929 28.4734 18.196 28.5883 17.9506 28.7803C17.3416 29.6429 16.8351 30.5735 16.4413 31.5532Z" fill="#75A3B1"/>
<path d="M16.1957 30.3977C15.9312 30.3974 15.673 30.3172 15.4548 30.1678L12.0093 27.8034C11.7218 27.6065 11.5241 27.3035 11.46 26.961C11.3958 26.6185 11.4703 26.2645 11.6672 25.9769C11.864 25.6893 12.167 25.4917 12.5096 25.4275C12.8521 25.3633 13.2061 25.4379 13.4937 25.6347L16.9391 27.9991C17.1712 28.1575 17.3464 28.3861 17.439 28.6514C17.5315 28.9167 17.5366 29.2046 17.4534 29.473C17.3702 29.7414 17.2032 29.976 16.9768 30.1424C16.7504 30.3089 16.4766 30.3983 16.1957 30.3977Z" fill="#75A3B1"/>
</svg>
