<svg width="76" height="74" viewBox="0 0 76 74" fill="none" xmlns="http://www.w3.org/2000/svg">
<path d="M33.25 0C32.9351 0 32.633 0.125748 32.4103 0.349582C32.1876 0.573416 32.0625 0.877 32.0625 1.19355V3.08652C31.4307 3.28703 30.8251 3.54006 30.2337 3.84084L28.9085 2.50884C28.6858 2.28508 28.3838 2.15938 28.0689 2.15938C27.7541 2.15938 27.4521 2.28508 27.2294 2.50884L23.8687 5.88419C23.6461 6.10802 23.5211 6.41155 23.5211 6.72803C23.5211 7.04452 23.6461 7.34805 23.8687 7.57187L25.194 8.90387C24.8917 9.49431 24.639 10.1091 24.4387 10.7419H22.5625C22.2476 10.7419 21.9455 10.8677 21.7228 11.0915C21.5001 11.3154 21.375 11.6189 21.375 11.9355V16.7097C21.375 17.0262 21.5001 17.3298 21.7228 17.5536C21.9455 17.7775 22.2476 17.9032 22.5625 17.9032H24.4411C24.6406 18.5382 24.8924 19.1517 25.1916 19.7437L23.8711 21.0733C23.6485 21.2971 23.5234 21.6006 23.5234 21.9171C23.5234 22.2336 23.6485 22.5371 23.8711 22.761L27.2294 26.1363C27.4521 26.3601 27.7541 26.4858 28.0689 26.4858C28.3838 26.4858 28.6858 26.3601 28.9085 26.1363L30.2337 24.8043C30.8251 25.1099 31.4307 25.3653 32.0625 25.5682V27.4516C32.0625 27.7682 32.1876 28.0717 32.4103 28.2956C32.633 28.5194 32.9351 28.6452 33.25 28.6452H38C38.3149 28.6452 38.617 28.5194 38.8397 28.2956C39.0624 28.0717 39.1875 27.7682 39.1875 27.4516V25.5634C39.8192 25.3629 40.4296 25.1123 41.0186 24.8091L42.3415 26.1363C42.5642 26.3601 42.8662 26.4858 43.1811 26.4858C43.4959 26.4858 43.7979 26.3601 44.0206 26.1363L47.3789 22.761C47.6015 22.5371 47.7266 22.2336 47.7266 21.9171C47.7266 21.6006 47.6015 21.2971 47.3789 21.0733L46.0584 19.7437C46.3609 19.1525 46.6135 18.5369 46.8136 17.9032H48.6875C49.0024 17.9032 49.3045 17.7775 49.5272 17.5536C49.7499 17.3298 49.875 17.0262 49.875 16.7097V11.9355C49.875 11.6189 49.7499 11.3154 49.5272 11.0915C49.3045 10.8677 49.0024 10.7419 48.6875 10.7419H46.8089C46.6104 10.1084 46.3593 9.49279 46.0584 8.90148L47.3789 7.57187C47.6015 7.34805 47.7266 7.04452 47.7266 6.72803C47.7266 6.41155 47.6015 6.10802 47.3789 5.88419L44.0206 2.50645C43.7979 2.2827 43.4959 2.157 43.1811 2.157C42.8662 2.157 42.5642 2.2827 42.3415 2.50645L41.0163 3.83845C40.4288 3.53459 39.8171 3.28067 39.1875 3.07936V1.19355C39.1875 0.877 39.0624 0.573416 38.8397 0.349582C38.617 0.125748 38.3149 0 38 0H33.25ZM34.4375 2.3871H36.8125V3.85994C36.8122 4.13063 36.9035 4.39337 37.0714 4.60504C37.2393 4.81672 37.4738 4.96475 37.7364 5.02484C38.7766 5.26355 39.7718 5.67652 40.6766 6.24703C40.9046 6.39109 41.1744 6.45302 41.442 6.42266C41.7095 6.3923 41.9589 6.27145 42.1491 6.07994L43.1822 5.03916L44.8614 6.72684L43.8306 7.76284C43.6401 7.95405 43.5198 8.20466 43.4896 8.47358C43.4594 8.74249 43.521 9.01375 43.6644 9.24284C44.2296 10.1499 44.6357 11.1525 44.8709 12.2028C44.9311 12.4663 45.0786 12.7015 45.2892 12.8697C45.4997 13.038 45.7609 13.1294 46.0299 13.129H47.5V15.5161H46.0346C45.765 15.516 45.5033 15.6081 45.2927 15.7773C45.082 15.9465 44.9349 16.1827 44.8756 16.4471C44.6381 17.495 44.2272 18.4905 43.6596 19.3999C43.5163 19.629 43.4547 19.9003 43.4849 20.1692C43.5151 20.4381 43.6353 20.6887 43.8259 20.8799L44.8614 21.9183L43.1822 23.606L42.1515 22.57C41.9617 22.3802 41.7137 22.2604 41.4477 22.2301C41.1818 22.1998 40.9134 22.2607 40.6861 22.4029C39.7795 22.9721 38.7839 23.3837 37.7411 23.6203C37.4784 23.6793 37.2435 23.8262 37.0748 24.037C36.906 24.2478 36.8136 24.5099 36.8125 24.7805V26.2581H34.4375V24.7852C34.4372 24.5149 34.3457 24.2528 34.1778 24.0416C34.01 23.8304 33.7758 23.6827 33.5136 23.6227C32.4723 23.385 31.4783 22.9726 30.5734 22.4029C30.3465 22.2576 30.0772 22.1941 29.8097 22.2227C29.5422 22.2514 29.2923 22.3704 29.1009 22.5605L28.0677 23.6012L26.3886 21.9135L27.4194 20.8776C27.6082 20.6868 27.7274 20.4376 27.7575 20.1702C27.7877 19.9029 27.7271 19.6331 27.5856 19.4047C27.0208 18.4932 26.613 17.4925 26.3791 16.4447C26.3203 16.1799 26.1734 15.9431 25.9627 15.7735C25.752 15.6038 25.4901 15.5113 25.2201 15.5114H23.75V13.1243H25.2154C25.4847 13.1245 25.7461 13.0328 25.9567 12.864C26.1673 12.6953 26.3146 12.4596 26.3744 12.1957C26.6119 11.1501 27.0227 10.1547 27.5904 9.24523C27.7343 9.0159 27.7963 8.74415 27.7661 8.47471C27.7358 8.20527 27.6152 7.9542 27.4241 7.76284L26.3886 6.72206L28.0677 5.03439L29.0985 6.07039C29.2877 6.26093 29.5354 6.38159 29.8014 6.41279C30.0674 6.44399 30.3361 6.38389 30.5639 6.24226C31.4705 5.67305 32.4661 5.26148 33.5089 5.02484C33.7716 4.96587 34.0065 4.81895 34.1752 4.60816C34.344 4.39738 34.4364 4.13524 34.4375 3.86471V2.3871ZM35.625 6.34013C33.5194 6.34391 31.501 7.18598 30.0116 8.68202C28.5223 10.1781 27.6833 12.2062 27.6783 14.3226C27.6833 16.4394 28.5221 18.468 30.0113 19.9648C31.5006 21.4616 33.5189 22.3048 35.625 22.3098C37.7311 22.3048 39.7494 21.4616 41.2387 19.9648C42.7279 18.468 43.5667 16.4394 43.5718 14.3226C43.5667 12.2062 42.7277 10.1781 41.2384 8.68202C39.749 7.18598 37.7306 6.34391 35.625 6.34013ZM35.625 8.72723C38.7125 8.72723 41.1968 11.217 41.1968 14.3226C41.1989 15.0586 41.0563 15.7878 40.7771 16.4683C40.4979 17.1487 40.0875 17.7669 39.5697 18.2874C39.0519 18.8078 38.4368 19.2203 37.7598 19.5009C37.0828 19.7816 36.3573 19.9249 35.625 19.9227C34.8927 19.9249 34.1672 19.7816 33.4902 19.5009C32.8132 19.2203 32.1981 18.8078 31.6803 18.2874C31.1625 17.7669 30.7521 17.1487 30.4729 16.4683C30.1937 15.7878 30.0511 15.0586 30.0533 14.3226C30.0533 11.2194 32.5351 8.72723 35.625 8.72723ZM56.5678 23.871C56.2528 23.871 55.9508 23.9967 55.7281 24.2206C55.5054 24.4444 55.3803 24.748 55.3803 25.0645V27.4421C54.5388 27.6973 53.7236 28.0331 52.9459 28.4446L51.2834 26.7737C51.0608 26.5507 50.7593 26.4254 50.445 26.4254C50.1307 26.4254 49.8292 26.5507 49.6066 26.7737L45.6356 30.7601C45.525 30.871 45.4373 31.0027 45.3774 31.1477C45.3176 31.2927 45.2868 31.4482 45.2868 31.6052C45.2868 31.7622 45.3176 31.9176 45.3774 32.0626C45.4373 32.2076 45.525 32.3393 45.6356 32.4502L47.3052 34.1283C46.8929 34.9066 46.5557 35.7227 46.2982 36.5656H43.9375C43.6226 36.5656 43.3205 36.6913 43.0978 36.9151C42.8751 37.139 42.75 37.4426 42.75 37.7591V43.407C42.75 43.7235 42.8751 44.0271 43.0978 44.2509C43.3205 44.4748 43.6226 44.6005 43.9375 44.6005H46.2982C46.5547 45.4455 46.8849 46.2596 47.2957 47.0425L45.6333 48.7159C45.4106 48.9397 45.2856 49.2432 45.2856 49.5597C45.2856 49.8762 45.4106 50.1797 45.6333 50.4035L49.6066 54.39C49.8293 54.6138 50.1313 54.7395 50.4462 54.7395C50.7611 54.7395 51.0631 54.6138 51.2858 54.39L52.9482 52.7166C53.7296 53.132 54.5395 53.4686 55.3803 53.7288V56.0968C55.3803 56.4133 55.5054 56.7169 55.7281 56.9407C55.9508 57.1646 56.2528 57.2903 56.5678 57.2903H62.1822C62.4972 57.2903 62.7992 57.1646 63.0219 56.9407C63.2446 56.7169 63.3697 56.4133 63.3697 56.0968V53.724C64.2112 53.4687 65.0264 53.133 65.8041 52.7214L67.4666 54.3924C67.6892 54.6154 67.9907 54.7407 68.305 54.7407C68.6193 54.7407 68.9208 54.6154 69.1434 54.3924L73.1144 50.4059C73.225 50.2951 73.3127 50.1634 73.3726 50.0184C73.4324 49.8734 73.4632 49.7179 73.4632 49.5609C73.4632 49.4039 73.4324 49.2485 73.3726 49.1035C73.3127 48.9585 73.225 48.8267 73.1144 48.7159L71.4447 47.0377C71.858 46.2572 72.1929 45.4455 72.4518 44.6005H74.8125C75.1274 44.6005 75.4295 44.4748 75.6522 44.2509C75.8749 44.0271 76 43.7235 76 43.407V37.7591C76 37.4426 75.8749 37.139 75.6522 36.9151C75.4295 36.6913 75.1274 36.5656 74.8125 36.5656H72.4518C72.1975 35.7214 71.8635 34.9037 71.4543 34.1236L73.1167 32.4502C73.3394 32.2264 73.4644 31.9228 73.4644 31.6064C73.4644 31.2899 73.3394 30.9863 73.1167 30.7625L69.1434 26.7761C68.9207 26.5523 68.6187 26.4266 68.3038 26.4266C67.9889 26.4266 67.6869 26.5523 67.4642 26.7761L65.8018 28.4494C65.0251 28.0347 64.2107 27.6958 63.3697 27.4373V25.0645C63.3697 24.748 63.2446 24.4444 63.0219 24.2206C62.7992 23.9967 62.4972 23.871 62.1822 23.871H56.5678ZM57.7553 26.2581H60.9947V28.2155C60.9938 28.4863 61.0845 28.7493 61.252 28.9614C61.4195 29.1735 61.6537 29.3221 61.9162 29.3828C63.1702 29.6692 64.372 30.1681 65.4597 30.8556C65.6877 30.9997 65.9576 31.0616 66.2251 31.0312C66.4927 31.0009 66.742 30.88 66.9323 30.6885L68.305 29.3064L70.5969 31.6052L69.2265 32.9849C69.0364 33.1752 68.9159 33.4246 68.8849 33.6925C68.8538 33.9604 68.914 34.231 69.0555 34.4601C69.7371 35.5582 70.2311 36.7637 70.5114 38.0265C70.5717 38.2904 70.7196 38.5258 70.9306 38.6941C71.1416 38.8624 71.4033 38.9536 71.6728 38.9526H73.625V42.2134H71.6775C71.4081 42.2125 71.1464 42.3037 70.9353 42.472C70.7243 42.6403 70.5765 42.8757 70.5161 43.1396C70.2318 44.3993 69.738 45.6018 69.0555 46.6964C68.9119 46.9252 68.8499 47.1963 68.8796 47.4652C68.9094 47.7341 69.0292 47.9849 69.2194 48.1764L70.5969 49.5609L68.305 51.8597L66.937 50.4823C66.7468 50.2908 66.4974 50.17 66.2299 50.1396C65.9623 50.1092 65.6924 50.1712 65.4645 50.3152C64.372 51.0003 63.1774 51.4968 61.921 51.7785C61.6584 51.8381 61.4236 51.9855 61.2553 52.1968C61.087 52.408 60.9952 52.6704 60.9947 52.941V54.9032H57.7553V52.9458C57.7551 52.6758 57.6639 52.4139 57.4965 52.2028C57.3292 51.9916 57.0955 51.8438 56.8338 51.7833C55.5787 51.4958 54.3807 50.9979 53.2902 50.3105C53.0623 50.1664 52.7924 50.1045 52.5249 50.1348C52.2573 50.1652 52.008 50.286 51.8178 50.4776L50.445 51.8597L48.1531 49.5609L49.5235 48.1812C49.7136 47.9909 49.8341 47.7414 49.8651 47.4735C49.8962 47.2057 49.836 46.9351 49.6945 46.7059C49.0133 45.6078 48.5211 44.4022 48.2386 43.1396C48.1783 42.8757 48.0304 42.6403 47.8194 42.472C47.6084 42.3037 47.3467 42.2125 47.0773 42.2134H45.125V38.9526H47.0725C47.3419 38.9536 47.6036 38.8624 47.8147 38.6941C48.0257 38.5258 48.1735 38.2904 48.2339 38.0265C48.5182 36.7667 49.012 35.5642 49.6945 34.4697C49.8381 34.2408 49.9001 33.9697 49.8704 33.7008C49.8406 33.4319 49.7208 33.1812 49.5306 32.9897L48.1531 31.6052L50.445 29.3064L51.813 30.6837C52.0032 30.8753 52.2526 30.9961 52.5201 31.0265C52.7877 31.0568 53.0576 30.9949 53.2855 30.8508C54.378 30.1657 55.5726 29.6692 56.829 29.3876C57.0924 29.3278 57.3278 29.1797 57.4961 28.9674C57.6645 28.7552 57.7559 28.4917 57.7553 28.2203V26.2581ZM17.7056 31.0323C17.3907 31.0323 17.0886 31.158 16.8659 31.3818C16.6432 31.6057 16.5181 31.9093 16.5181 32.2258V35.5725C15.2525 35.9358 14.0313 36.4402 12.8772 37.0764L10.5355 34.7203C10.3128 34.4966 10.0108 34.3709 9.69594 34.3709C9.38105 34.3709 9.07906 34.4966 8.85637 34.7203L3.66937 39.9361C3.44675 40.16 3.32169 40.4635 3.32169 40.78C3.32169 41.0965 3.44675 41.4 3.66937 41.6238L6.01587 43.9846C5.3792 45.1417 4.87334 46.3668 4.50775 47.6369H1.1875C0.872555 47.6369 0.57051 47.7627 0.347811 47.9865C0.125111 48.2103 0 48.5139 0 48.8305L0 56.2066C0 56.5231 0.125111 56.8267 0.347811 57.0505C0.57051 57.2744 0.872555 57.4001 1.1875 57.4001H4.51725C4.88062 58.6748 5.37463 59.897 6.00638 61.0572L3.66937 63.4108C3.44675 63.6347 3.32169 63.9382 3.32169 64.2547C3.32169 64.5712 3.44675 64.8747 3.66937 65.0985L8.85637 70.3167C9.07906 70.5405 9.38105 70.6662 9.69594 70.6662C10.0108 70.6662 10.3128 70.5405 10.5355 70.3167L12.8868 67.9583C14.0386 68.5956 15.2522 69.1017 16.5205 69.4693V72.8065C16.5205 73.123 16.6456 73.4266 16.8683 73.6504C17.091 73.8743 17.3931 74 17.708 74H25.0444C25.3593 74 25.6614 73.8743 25.8841 73.6504C26.1068 73.4266 26.2319 73.123 26.2319 72.8065V69.4645C27.4975 69.1013 28.7188 68.5969 29.8727 67.9606L32.2145 70.3167C32.4372 70.5405 32.7392 70.6662 33.0541 70.6662C33.3689 70.6662 33.6709 70.5405 33.8936 70.3167L39.0806 65.0985C39.3032 64.8747 39.4283 64.5712 39.4283 64.2547C39.4283 63.9382 39.3032 63.6347 39.0806 63.4108L36.7341 61.0524C37.3706 59.8923 37.8741 58.6748 38.2422 57.4001H41.5625C41.8774 57.4001 42.1795 57.2744 42.4022 57.0505C42.6249 56.8267 42.75 56.5231 42.75 56.2066V48.8305C42.75 48.5139 42.6249 48.2103 42.4022 47.9865C42.1795 47.7627 41.8774 47.6369 41.5625 47.6369H38.2327C37.8735 46.3659 37.374 45.1393 36.7436 43.9799L39.0806 41.6262C39.1912 41.5153 39.279 41.3836 39.3388 41.2386C39.3987 41.0936 39.4295 40.9382 39.4295 40.7812C39.4295 40.6242 39.3987 40.4687 39.3388 40.3237C39.279 40.1787 39.1912 40.047 39.0806 39.9361L33.8936 34.7203C33.6709 34.4966 33.3689 34.3709 33.0541 34.3709C32.7392 34.3709 32.4372 34.4966 32.2145 34.7203L29.8633 37.0788C28.7118 36.4406 27.493 35.9338 26.2295 35.5677V32.2258C26.2295 31.9093 26.1044 31.6057 25.8817 31.3818C25.659 31.158 25.3569 31.0323 25.042 31.0323H17.7056ZM59.375 31.3641C56.9443 31.3685 54.6145 32.3409 52.8958 34.0684C51.177 35.7959 50.2095 38.1376 50.2051 40.5806C50.2095 43.0241 51.1769 45.3663 52.8955 47.0946C54.6141 48.8228 56.9439 49.7963 59.375 49.802C61.8061 49.7963 64.1359 48.8228 65.8545 47.0946C67.5731 45.3663 68.5405 43.0241 68.5449 40.5806C68.5405 38.1376 67.573 35.7959 65.8542 34.0684C64.1355 32.3409 61.8057 31.3685 59.375 31.3641ZM18.8931 33.4194H23.8569V36.3483C23.8566 36.619 23.9479 36.8818 24.1158 37.0934C24.2837 37.3051 24.5181 37.4531 24.7808 37.5132C26.4599 37.8975 28.0654 38.5636 29.526 39.485C29.7537 39.6284 30.0231 39.69 30.2901 39.6597C30.5572 39.6293 30.806 39.5088 30.9961 39.3179L33.0553 37.2506L36.5631 40.7812L34.5159 42.8412C34.3263 43.0314 34.2062 43.2803 34.1752 43.5477C34.1442 43.8151 34.204 44.0852 34.3449 44.3141C35.2569 45.7845 35.9195 47.3982 36.2971 49.0883C36.3559 49.3527 36.5024 49.5891 36.7126 49.7588C36.9228 49.9284 37.1842 50.0211 37.4538 50.0216H40.375V55.0154H37.4609C37.1916 55.0152 36.9301 55.1069 36.7195 55.2757C36.5089 55.4444 36.3617 55.6801 36.3019 55.944C35.9193 57.6333 35.2561 59.2457 34.3401 60.7134C34.1974 60.9423 34.1361 61.213 34.1663 61.4814C34.1965 61.7498 34.3164 62 34.5064 62.191L36.5631 64.2559L33.0553 67.784L31.0056 65.7239C30.8154 65.5324 30.566 65.4116 30.2985 65.3812C30.0309 65.3509 29.7611 65.4128 29.5331 65.5568C28.0706 66.4731 26.4647 67.1349 24.7831 67.5143C24.5201 67.5739 24.2851 67.7217 24.1167 67.9334C23.9484 68.1451 23.8567 68.4081 23.8569 68.6792V71.6129H18.8931V68.6839C18.8923 68.4141 18.8005 68.1524 18.6327 67.9417C18.4649 67.731 18.2311 67.5837 17.9692 67.5238C16.2885 67.1393 14.6842 66.4727 13.224 65.5521C12.9968 65.408 12.7277 65.3456 12.4607 65.3751C12.1937 65.4046 11.9445 65.5242 11.7539 65.7144L9.69475 67.784L6.18687 64.2559L8.23413 62.1958C8.4237 62.0057 8.54375 61.7567 8.57479 61.4893C8.60584 61.2219 8.54604 60.9519 8.40512 60.723C7.49192 59.2532 6.83191 57.6392 6.45288 55.9488C6.39411 55.6844 6.24758 55.4479 6.03738 55.2783C5.82718 55.1086 5.56582 55.016 5.29625 55.0154H2.375V50.0216H5.28912C5.55845 50.0219 5.81986 49.9301 6.03046 49.7614C6.24106 49.5926 6.38834 49.357 6.44812 49.093C6.8305 47.4054 7.49312 45.7917 8.40987 44.3236C8.5526 44.0948 8.61387 43.824 8.58367 43.5556C8.55348 43.2872 8.43359 43.037 8.24362 42.846L6.18687 40.7812L9.69475 37.2506L11.7444 39.3131C11.9346 39.5046 12.184 39.6255 12.4515 39.6558C12.7191 39.6862 12.9889 39.6243 13.2169 39.4802C14.6794 38.5638 16.2853 37.902 17.9669 37.5228C18.2303 37.4631 18.4656 37.3149 18.634 37.1027C18.8024 36.8905 18.8938 36.6269 18.8931 36.3555V33.4194ZM59.375 33.7512C60.268 33.7486 61.1527 33.9236 61.9783 34.2659C62.8038 34.6082 63.5538 35.1112 64.1853 35.7459C64.8168 36.3805 65.3172 37.1344 65.6578 37.9641C65.9983 38.7939 66.1724 39.6831 66.1699 40.5806C66.1724 41.4784 65.9984 42.3679 65.6578 43.1979C65.3173 44.0279 64.817 44.7821 64.1856 45.4171C63.5542 46.0522 62.8042 46.5556 61.9786 46.8984C61.1531 47.2413 60.2682 47.4168 59.375 47.4149C58.4818 47.4168 57.5969 47.2413 56.7714 46.8984C55.9458 46.5556 55.1958 46.0522 54.5644 45.4171C53.933 44.7821 53.4327 44.0279 53.0922 43.1979C52.7516 42.3679 52.5776 41.4784 52.5801 40.5806C52.5776 39.6831 52.7517 38.7939 53.0922 37.9641C53.4328 37.1344 53.9332 36.3805 54.5647 35.7459C55.1962 35.1112 55.9462 34.6082 56.7717 34.2659C57.5973 33.9236 58.482 33.7486 59.375 33.7512ZM21.375 40.8289C18.2926 40.834 15.3379 42.0669 13.1583 44.2576C10.9787 46.4483 9.75202 49.418 9.747 52.5161C9.75202 55.6142 10.9787 58.584 13.1583 60.7747C15.3379 62.9654 18.2926 64.1983 21.375 64.2034C24.4574 64.1983 27.4121 62.9654 29.5917 60.7747C31.7713 58.584 32.998 55.6142 33.003 52.5161C32.998 49.418 31.7713 46.4483 29.5917 44.2576C27.4121 42.0669 24.4574 40.834 21.375 40.8289ZM21.375 43.216C22.5907 43.2138 23.7949 43.4529 24.9186 43.9194C26.0422 44.386 27.0631 45.071 27.9227 45.935C28.7824 46.7991 29.4639 47.8252 29.9281 48.9545C30.3923 50.0839 30.6302 51.2942 30.628 52.5161C30.6302 53.7381 30.3923 54.9484 29.9281 56.0777C29.4639 57.2071 28.7824 58.2332 27.9227 59.0972C27.0631 59.9613 26.0422 60.6462 24.9186 61.1128C23.7949 61.5794 22.5907 61.8185 21.375 61.8163C20.1593 61.8185 18.9551 61.5794 17.8314 61.1128C16.7078 60.6462 15.6869 59.9613 14.8273 59.0972C13.9676 58.2332 13.2861 57.2071 12.8219 56.0777C12.3577 54.9484 12.1198 53.7381 12.122 52.5161C12.1198 51.2942 12.3577 50.0839 12.8219 48.9545C13.2861 47.8252 13.9676 46.7991 14.8273 45.935C15.6869 45.071 16.7078 44.386 17.8314 43.9194C18.9551 43.4529 20.1593 43.2138 21.375 43.216Z" fill="#75A3B1"/>
</svg>
